<?xml version="1.0" encoding="UTF-8" standalone="no"?>
<!-- Created with Inkscape (http://www.inkscape.org/) -->

<svg
   xmlns:dc="http://purl.org/dc/elements/1.1/"
   xmlns:cc="http://creativecommons.org/ns#"
   xmlns:rdf="http://www.w3.org/1999/02/22-rdf-syntax-ns#"
   xmlns:svg="http://www.w3.org/2000/svg"
   xmlns="http://www.w3.org/2000/svg"
   xmlns:sodipodi="http://sodipodi.sourceforge.net/DTD/sodipodi-0.dtd"
   xmlns:inkscape="http://www.inkscape.org/namespaces/inkscape"
   width="280px"
   height="240px"
   viewBox="0 0 280 240"
   version="1.1"
   id="SVGRoot"
   inkscape:version="0.92.3 (unknown)"
   sodipodi:docname="logo.svg">
  <sodipodi:namedview
     id="base"
     pagecolor="#ffffff"
     bordercolor="#666666"
     borderopacity="1.0"
     inkscape:pageopacity="0.0"
     inkscape:pageshadow="2"
     inkscape:zoom="1.9966906"
     inkscape:cx="139.09115"
     inkscape:cy="101.41323"
     inkscape:document-units="px"
     inkscape:current-layer="g156"
     showgrid="false"
     inkscape:window-width="1299"
     inkscape:window-height="713"
     inkscape:window-x="67"
     inkscape:window-y="27"
     inkscape:window-maximized="1"
     showguides="true"
     inkscape:guide-bbox="true">
    <sodipodi:guide
       position="139.76871,279.84394"
       orientation="1,0"
       id="guide1322"
       inkscape:locked="false" />
    <sodipodi:guide
       position="140.07267,214.3789"
       orientation="0,1"
       id="guide838"
       inkscape:locked="false" />
    <sodipodi:guide
       position="276.88847,146.64288"
       orientation="1,0"
       id="guide840"
       inkscape:locked="false" />
    <sodipodi:guide
       position="276.88847,126.64446"
       orientation="0,1"
       id="guide842"
       inkscape:locked="false" />
    <sodipodi:guide
       position="3.5159678,125.09796"
       orientation="1,0"
       id="guide844"
       inkscape:locked="false" />
  </sodipodi:namedview>
  <defs
     id="defs1264">
    <clipPath
       clipPathUnits="userSpaceOnUse"
       id="clipPath160">
      <path
         d="M 0,500 H 500 V 0 H 0 Z"
         id="path158"
         inkscape:connector-curvature="0" />
    </clipPath>
  </defs>
  <metadata
     id="metadata1267">
    <rdf:RDF>
      <cc:Work
         rdf:about="">
        <dc:format>image/svg+xml</dc:format>
        <dc:type
           rdf:resource="http://purl.org/dc/dcmitype/StillImage" />
        <dc:title />
      </cc:Work>
    </rdf:RDF>
  </metadata>
  <g
     id="layer1"
     inkscape:groupmode="layer"
     inkscape:label="Layer 1">
    <text
       style="font-variant:normal;font-weight:bold;font-stretch:condensed;font-size:37.19813156px;font-family:'Roboto Condensed';-inkscape-font-specification:RobotoCondensed-Bold;writing-mode:lr-tb;fill:#ff6295;fill-opacity:1;fill-rule:nonzero;stroke:none;stroke-width:1.33333325"
       id="text148"
       x="47.334114"
       y="257.17679">
      <tspan
         style="fill:#ff8b68;fill-opacity:1;stroke-width:1.33333325"
         sodipodi:role="line"
         id="tspan146"
         x="47.334114"
         y="290.08841" />
    </text>
<g transform="translate(0.000000,720.000000) scale(0.100000,-0.100000)"
fill="#000000" stroke="none">
<path d="M3614 6644 c-16 -7 -57 -23 -92 -35 -47 -16 -67 -29 -78 -50 -7 -15
-25 -40 -39 -55 -13 -14 -34 -47 -46 -73 -13 -25 -26 -48 -29 -51 -14 -10
-170 -254 -170 -266 0 -7 -16 -31 -36 -55 -19 -23 -44 -59 -54 -79 -10 -20
-26 -43 -35 -50 -9 -8 -33 -46 -52 -84 -20 -39 -41 -75 -48 -81 -23 -19 -155
-228 -155 -246 0 -10 -9 -23 -19 -29 -22 -11 -96 -119 -134 -195 -14 -27 -48
-76 -76 -108 -28 -32 -51 -65 -51 -73 0 -8 -13 -33 -30 -56 -16 -22 -30 -51
-30 -64 0 -14 -8 -25 -20 -29 -19 -6 -71 -75 -111 -146 -9 -16 -22 -36 -30
-45 -7 -9 -12 -29 -11 -44 2 -21 -3 -30 -19 -35 -11 -4 -27 -21 -34 -39 -8
-18 -21 -38 -29 -45 -20 -17 -62 -89 -69 -121 -4 -14 -24 -44 -46 -68 -22 -24
-43 -53 -47 -65 -4 -12 -27 -46 -50 -75 -24 -30 -44 -60 -44 -68 0 -8 -19 -41
-42 -73 -24 -33 -65 -96 -93 -141 -27 -44 -67 -104 -87 -132 -21 -28 -38 -57
-38 -63 0 -6 -19 -39 -43 -74 -23 -34 -53 -82 -67 -105 -14 -23 -37 -60 -51
-82 -35 -53 -66 -122 -73 -163 -6 -35 24 -100 47 -102 26 -2 134 3 157 7 14 2
63 11 109 19 46 9 86 14 88 11 3 -3 13 -1 23 4 9 5 44 11 78 14 34 2 66 7 71
10 5 4 31 9 58 11 26 3 70 9 97 15 59 12 113 4 144 -20 13 -11 33 -50 47 -90
13 -38 35 -92 48 -118 13 -26 34 -69 48 -97 31 -65 105 -162 128 -170 9 -3 24
-18 32 -33 20 -40 121 -129 209 -186 72 -46 150 -112 150 -127 0 -4 -33 -76
-74 -161 -68 -139 -74 -158 -71 -206 3 -61 3 -61 53 -80 56 -21 88 -22 138 -3
54 21 69 43 126 189 29 75 52 118 78 144 34 35 38 36 76 28 156 -37 394 -49
524 -27 80 14 86 13 104 -3 17 -17 18 -22 5 -52 -7 -18 -29 -50 -49 -70 -19
-20 -51 -55 -70 -77 -19 -23 -51 -58 -71 -79 -20 -21 -40 -48 -44 -61 -3 -12
-21 -29 -38 -38 -18 -8 -50 -40 -72 -70 -22 -30 -57 -75 -77 -99 -21 -25 -38
-53 -38 -62 -1 -9 -15 -26 -33 -37 -18 -11 -47 -43 -65 -70 -18 -28 -50 -68
-71 -90 -21 -22 -41 -51 -45 -63 -4 -12 -11 -22 -16 -22 -4 0 -32 -30 -62 -66
-29 -36 -81 -100 -115 -142 -35 -42 -70 -90 -79 -106 -9 -16 -29 -40 -45 -54
-17 -13 -37 -38 -45 -55 -9 -16 -29 -41 -45 -55 -17 -13 -36 -37 -44 -53 -8
-15 -25 -39 -38 -52 -37 -39 -101 -117 -111 -135 -5 -9 -16 -23 -23 -30 -7 -7
-13 -20 -13 -28 0 -8 -4 -14 -8 -14 -10 0 -42 -65 -42 -86 0 -8 9 -32 20 -53
16 -32 26 -40 57 -45 87 -15 159 -5 211 28 23 14 42 30 42 35 0 10 20 35 88
109 23 26 42 50 42 54 0 4 10 18 23 33 12 14 31 37 42 51 11 14 31 39 45 55
14 15 34 40 45 54 11 14 31 39 45 55 14 16 34 41 45 55 19 26 36 46 95 113 14
16 32 39 40 52 8 13 29 37 45 55 30 33 53 60 90 110 11 15 29 36 40 48 12 12
29 36 39 52 10 17 30 43 45 58 58 62 67 74 95 114 16 24 33 43 37 43 5 0 21
19 35 42 14 24 40 57 58 74 17 17 40 43 51 57 11 15 29 38 40 52 11 13 29 36
40 51 11 14 34 41 50 59 17 18 39 44 50 59 11 14 29 37 40 50 11 13 29 36 40
51 11 14 27 34 35 43 9 10 26 34 39 55 27 44 76 81 96 73 9 -3 33 -34 55 -68
48 -77 62 -97 76 -112 6 -6 19 -24 30 -41 23 -36 27 -42 59 -78 14 -15 25 -32
25 -37 0 -5 6 -15 13 -22 6 -7 29 -39 50 -70 55 -82 117 -145 157 -161 49 -19
160 -22 184 -4 26 19 38 103 20 139 -22 43 -71 113 -103 147 -16 17 -41 50
-54 74 -28 46 -67 95 -109 138 -16 15 -28 31 -28 36 0 9 -19 36 -55 78 -19 23
-131 85 -160 89 -22 3 -45 27 -45 48 0 19 18 48 70 108 14 16 34 41 45 56 11
14 29 37 40 50 11 13 29 36 40 50 11 13 31 38 45 54 14 16 34 41 45 56 60 81
93 91 146 44 30 -27 460 -289 547 -334 47 -24 196 -33 240 -15 38 16 64 71 51
105 -4 10 -10 31 -13 46 -5 20 -19 33 -61 52 -30 15 -66 37 -79 51 -14 14 -32
25 -40 25 -8 0 -16 4 -18 9 -10 26 -392 231 -442 237 -81 9 -96 16 -96 48 0
22 14 44 60 96 14 15 34 40 45 54 11 14 31 39 45 55 14 15 34 40 45 55 11 15
31 40 45 56 14 17 35 42 47 57 50 61 79 96 97 115 10 11 27 40 37 63 18 41 18
46 3 78 -22 46 -46 56 -147 58 -75 1 -89 -1 -130 -26 -26 -15 -47 -30 -47 -34
0 -17 -90 -111 -106 -111 -28 0 -45 38 -45 102 0 76 -3 124 -13 158 -9 35 6
82 30 90 11 5 36 2 55 -4 20 -7 44 -9 55 -5 10 4 51 15 90 23 105 24 101 23
214 57 58 17 123 35 145 40 22 6 77 21 123 35 82 25 83 26 103 71 19 44 19 48
3 90 -25 65 -97 110 -180 112 -49 1 -66 -3 -89 -20 -19 -16 -44 -23 -79 -25
-63 -2 -400 -88 -441 -113 -45 -26 -84 -34 -102 -20 -8 7 -32 44 -54 83 -47
84 -62 109 -69 116 -3 3 -17 23 -31 45 -33 51 -64 89 -112 137 -47 47 -54 88
-17 99 14 4 46 7 72 8 26 1 58 5 72 11 25 9 131 112 216 208 42 48 92 103 196
214 22 23 48 63 57 88 14 39 15 50 3 84 -14 40 -42 70 -57 60 -5 -3 -22 2 -40
11 -29 16 -34 15 -84 -5 -60 -24 -169 -128 -186 -178 -6 -17 -23 -35 -43 -44
-18 -9 -53 -40 -77 -68 -24 -29 -65 -74 -91 -100 -27 -27 -48 -57 -48 -68 0
-11 -11 -27 -25 -36 -15 -10 -27 -29 -31 -53 -7 -42 -29 -73 -51 -73 -8 0 -27
9 -41 21 -89 69 -141 100 -175 106 -21 3 -44 11 -50 18 -20 19 -52 34 -88 40
-19 3 -59 13 -89 22 -66 20 -77 22 -112 28 -34 5 -60 19 -78 40 -12 14 -8 21
28 53 22 20 46 51 53 67 14 36 47 167 54 214 3 19 8 38 11 43 3 5 7 22 9 38 2
16 9 48 16 72 7 24 14 48 15 53 2 6 6 24 9 40 3 17 10 48 15 70 7 34 14 131
11 173 -2 22 -60 49 -100 47 -46 -2 -57 -10 -147 -106 -62 -66 -72 -90 -89
-221 -2 -21 -11 -51 -20 -67 -8 -16 -12 -36 -9 -44 3 -9 -1 -28 -10 -44 -8
-16 -17 -47 -20 -69 -3 -21 -10 -55 -15 -74 -10 -35 -8 -117 4 -177 8 -36 -12
-53 -61 -52 -35 0 -129 -6 -204 -13 -55 -6 -149 -38 -245 -84 -28 -13 -56 -24
-62 -24 -6 0 -18 -6 -25 -12 -7 -7 -52 -33 -100 -57 -49 -25 -88 -48 -88 -51
0 -3 -19 -17 -42 -30 -23 -13 -70 -47 -105 -77 -35 -29 -63 -51 -63 -47 0 4
-7 1 -15 -6 -8 -7 -13 -16 -10 -20 2 -4 -16 -34 -41 -66 -25 -32 -55 -77 -66
-99 l-19 -40 27 35 c68 87 264 270 347 325 94 61 238 132 333 164 277 92 600
75 918 -49 272 -106 523 -346 671 -641 29 -58 61 -111 70 -119 15 -13 20 -11
39 11 42 51 61 58 487 168 194 51 223 52 281 8 23 -18 49 -44 57 -59 21 -36 1
-80 -46 -102 -56 -27 -541 -157 -608 -163 -55 -5 -65 -3 -110 26 -27 17 -52
31 -56 31 -17 0 -16 -52 2 -174 10 -72 19 -174 19 -227 0 -100 10 -126 43
-113 8 3 52 50 97 105 44 54 94 106 110 114 18 9 56 15 100 15 62 0 74 -3 95
-25 52 -51 41 -71 -219 -385 -168 -204 -237 -302 -223 -316 3 -3 43 -7 90 -9
63 -3 96 -9 129 -26 43 -22 330 -192 393 -232 19 -12 61 -39 95 -61 72 -45 97
-85 81 -129 -13 -35 -46 -47 -126 -47 -83 0 -99 8 -405 193 -244 147 -265 163
-305 232 -10 16 -13 16 -34 4 -22 -13 -378 -443 -430 -519 -13 -19 -43 -55
-66 -80 -24 -25 -143 -169 -266 -320 -285 -352 -366 -451 -1006 -1236 -121
-148 -235 -282 -252 -297 -30 -25 -40 -27 -116 -27 -79 0 -85 1 -105 27 -16
20 -20 36 -16 57 6 31 77 126 232 316 47 58 111 136 142 174 32 38 68 83 82
100 14 17 112 139 219 271 107 132 222 274 255 315 33 41 146 179 251 305 208
250 235 286 235 308 0 26 -30 28 -134 8 -198 -38 -339 -36 -559 6 -86 16 -88
16 -115 -4 -18 -13 -41 -54 -69 -119 -74 -177 -95 -214 -124 -230 -54 -28
-131 -12 -150 30 -14 29 -1 88 35 169 61 134 86 202 86 232 0 37 -2 39 -142
136 -94 66 -233 200 -302 293 -59 80 -127 204 -165 304 -39 104 -49 119 -81
132 -28 11 -18 13 -510 -65 -286 -45 -320 -41 -320 43 0 33 30 83 323 542 51
80 173 271 271 425 98 154 190 297 205 318 14 20 32 50 40 64 8 15 53 86 100
159 95 146 250 388 352 546 36 57 97 153 136 213 78 122 98 153 364 568 101
158 197 304 212 322 20 25 44 39 82 51 30 8 57 20 60 25 4 5 24 9 45 9 30 0
43 -6 59 -26 42 -53 56 -26 -324 -614 -137 -212 -387 -601 -556 -865 -169
-264 -375 -584 -458 -711 -83 -127 -151 -234 -151 -238 0 -14 123 161 184 261
79 129 126 194 136 188 5 -3 12 0 16 6 4 8 3 9 -4 5 -17 -10 -15 6 4 32 8 12
12 22 9 22 -4 0 14 23 40 52 25 28 65 83 88 122 23 39 44 73 48 76 3 3 12 16
19 30 19 37 424 667 453 705 4 5 76 118 160 250 85 132 167 260 184 285 147
218 187 286 191 332 8 87 -11 116 -82 122 -18 1 -46 -4 -62 -10z m405 -730
c12 -15 21 -40 21 -56 0 -29 -96 -465 -126 -574 -20 -73 -45 -100 -104 -113
-72 -16 -115 6 -125 63 -6 33 86 509 106 549 6 12 41 52 77 90 55 55 72 67 99
67 22 0 38 -8 52 -26z m1124 -505 c30 -16 37 -28 37 -68 0 -38 -22 -70 -115
-171 -33 -36 -100 -110 -150 -165 -169 -188 -191 -205 -259 -205 -50 0 -86 33
-86 78 0 20 4 43 8 50 37 58 399 450 436 473 35 21 96 25 129 8z m-592 -2950
c29 -11 65 -29 80 -40 46 -32 387 -494 394 -533 8 -41 -7 -74 -41 -86 -38 -15
-140 17 -179 55 -46 47 -337 443 -364 497 -27 55 -20 95 20 115 31 16 29 16
90 -8z"/>
<path d="M3998 5875 c-3 -5 -36 -147 -73 -315 -37 -168 -72 -310 -77 -317 -5
-6 -28 -15 -51 -18 -52 -9 -74 -20 -59 -29 19 -11 110 5 125 23 17 19 150 610
145 643 -2 13 -6 19 -10 13z"/>
<path d="M4946 5120 c-115 -127 -221 -240 -234 -251 -14 -10 -40 -19 -58 -19
-19 0 -34 -4 -34 -10 0 -5 21 -10 48 -10 l47 0 223 246 c124 136 222 252 220
260 -2 9 -88 -79 -212 -216z"/>
<path d="M4834 1865 c9 -13 25 -20 44 -20 16 0 39 -8 49 -17 11 -10 26 -18 35
-18 19 0 48 32 48 53 0 25 -18 30 -30 7 -12 -23 -42 -26 -59 -6 -7 8 -32 16
-56 18 -42 3 -44 2 -31 -17z"/>
<path d="M3674 6528 c-15 -24 -443 -690 -952 -1482 -508 -791 -927 -1447 -930
-1458 -11 -43 20 -10 81 84 34 54 150 234 257 400 107 166 263 407 345 535 83
128 202 313 265 410 63 98 193 300 289 448 96 149 193 299 216 335 330 510
469 728 472 741 10 36 -18 27 -43 -13z"/>
<path d="M3460 4949 c-47 -5 -125 -20 -175 -35 -427 -121 -761 -476 -849 -904
-21 -102 -29 -245 -18 -300 9 -42 10 -38 11 45 2 172 48 358 127 518 113 230
302 420 525 530 187 91 336 127 534 127 214 0 377 -41 574 -146 46 -24 86 -43
88 -41 7 7 -135 87 -218 122 -103 44 -212 72 -331 85 -106 11 -149 11 -268 -1z"/>
<path d="M2820 4585 c-10 -12 -10 -15 4 -15 9 0 16 7 16 15 0 8 -2 15 -4 15
-2 0 -9 -7 -16 -15z"/>
<path d="M2741 4504 c-39 -44 -113 -152 -140 -201 -16 -30 0 -29 19 1 46 71
90 134 112 156 30 31 61 80 55 86 -2 3 -23 -16 -46 -42z"/>
<path d="M5698 4299 c-2 -6 -157 -53 -343 -104 -229 -63 -334 -95 -321 -100
11 -5 137 24 345 79 304 82 351 98 351 128 0 12 -28 10 -32 -3z"/>
<path d="M2386 4275 c-9 -26 -7 -32 5 -12 6 10 9 21 6 23 -2 3 -7 -2 -11 -11z"/>
<path d="M4955 4150 c3 -5 13 -10 21 -10 8 0 14 5 14 10 0 6 -9 10 -21 10 -11
0 -17 -4 -14 -10z"/>
<path d="M2503 4060 c-5 -22 -7 -37 -2 -35 9 6 23 64 17 70 -2 3 -9 -13 -15
-35z"/>
<path d="M2155 4060 c-3 -5 -1 -10 4 -10 6 0 11 5 11 10 0 6 -2 10 -4 10 -3 0
-8 -4 -11 -10z"/>
<path d="M2131 4019 c-7 -12 -10 -23 -8 -26 3 -3 11 5 17 17 15 28 8 35 -9 9z"/>
<path d="M2302 3975 c0 -16 2 -22 5 -12 2 9 2 23 0 30 -3 6 -5 -1 -5 -18z"/>
<path d="M2471 3914 c0 -11 3 -14 6 -6 3 7 2 16 -1 19 -3 4 -6 -2 -5 -13z"/>
<path d="M2291 3884 c0 -11 3 -14 6 -6 3 7 2 16 -1 19 -3 4 -6 -2 -5 -13z"/>
<path d="M4891 3770 c0 -69 -8 -165 -17 -213 -14 -78 -14 -110 1 -95 21 21 40
277 27 368 -9 62 -10 59 -11 -60z"/>
<path d="M2463 3800 c0 -36 2 -50 4 -32 2 17 2 47 0 65 -2 17 -4 3 -4 -33z"/>
<path d="M2283 3770 c0 -36 2 -50 4 -32 2 17 2 47 0 65 -2 17 -4 3 -4 -33z"/>
<path d="M5290 3682 c-47 -59 -177 -219 -289 -357 -113 -137 -248 -304 -302
-370 -264 -323 -879 -1078 -1363 -1673 -358 -438 -546 -662 -558 -662 -10 0
-26 5 -36 11 -19 11 -92 -13 -92 -31 0 -16 42 -12 61 6 17 15 20 15 44 -4 15
-12 33 -18 41 -15 14 5 110 120 620 748 143 176 361 444 484 595 123 151 330
406 460 565 212 260 716 880 875 1075 34 41 82 101 108 133 43 53 59 87 40 87
-5 0 -46 -49 -93 -108z"/>
<path d="M1946 3735 c-9 -26 -7 -32 5 -12 6 10 9 21 6 23 -2 3 -7 -2 -11 -11z"/>
<path d="M3663 3730 c-24 -57 -329 -796 -384 -929 -54 -132 -64 -171 -40 -145
5 5 35 72 67 149 31 77 92 226 134 330 43 105 115 279 160 387 45 109 80 206
77 215 -3 15 -6 14 -14 -7z"/>
<path d="M1912 3674 c-20 -43 -1 -64 56 -62 36 1 40 2 15 5 -37 5 -63 35 -56
64 7 27 -2 24 -15 -7z"/>
<path d="M2237 3675 c-15 -14 -38 -25 -50 -26 -12 0 -16 -3 -10 -6 21 -8 82
17 93 38 14 26 1 23 -33 -6z"/>
<path d="M3250 3615 c-80 -13 -284 -44 -455 -70 -170 -26 -318 -51 -327 -56
-19 -10 -25 -39 -8 -39 6 0 10 4 10 10 0 5 15 11 33 14 268 42 400 63 717 112
129 19 239 40 245 45 15 14 -56 9 -215 -16z"/>
<path d="M3250 3560 c-25 -5 -182 -29 -349 -55 -361 -54 -348 -51 -368 -81
-14 -23 -14 -29 7 -87 62 -175 199 -360 360 -488 57 -45 132 -89 152 -89 23 0
63 52 83 107 10 26 73 179 141 340 68 160 124 302 124 315 0 47 -40 57 -150
38z m110 -30 c20 -20 20 -62 -1 -84 -5 -6 -9 -17 -9 -26 0 -15 -38 -94 -110
-227 -11 -21 -20 -43 -20 -50 0 -6 -11 -33 -25 -58 -13 -26 -27 -63 -31 -83
-4 -21 -17 -50 -30 -65 -13 -16 -24 -41 -24 -56 0 -30 -22 -66 -50 -81 -76
-41 -417 298 -477 473 -8 23 -18 46 -22 52 -15 19 -21 66 -11 84 14 28 51 37
275 72 518 80 505 79 535 49z"/>
<path d="M2120 3444 c-80 -13 -239 -37 -355 -54 -250 -36 -265 -39 -265 -51 0
-19 9 -17 590 72 107 16 210 32 228 35 17 3 32 9 32 14 0 15 -72 10 -230 -16z"/>
<path d="M4956 3001 c5 -5 104 -67 219 -137 409 -248 372 -228 404 -214 23 9
37 9 65 -1 33 -12 38 -11 58 8 26 26 18 64 -9 42 -10 -9 -43 -14 -92 -15 l-76
0 -277 163 c-242 143 -327 187 -292 154z"/>
<path d="M2894 2681 c9 -14 126 -83 135 -79 5 2 -24 22 -65 45 -41 23 -72 38
-70 34z"/>
<path d="M4085 2573 c-243 -102 -525 -120 -808 -52 -65 16 -91 18 -101 10 -7
-6 -46 -91 -86 -189 -40 -97 -80 -183 -89 -190 -9 -7 -27 -10 -39 -7 -26 6
-62 -2 -62 -14 0 -10 102 -12 118 -2 6 3 46 92 90 196 65 157 82 190 98 189
10 -1 55 -11 99 -22 248 -64 541 -46 777 49 78 31 119 60 82 58 -11 -1 -46
-13 -79 -26z"/>
  </g>
</svg>
